<mxfile host="app.diagrams.net" modified="2023-10-07T08:32:08.170Z" agent="Mozilla/5.0 (X11; Linux x86_64; rv:109.0) Gecko/20100101 Firefox/118.0" etag="sVuwYSU-zwoVYXb3DOE6" version="22.0.4" type="device">
  <diagram name="Page-1" id="WDCxuSINjywlILxmn3ys">
    <mxGraphModel dx="1245" dy="782" grid="0" gridSize="18" guides="1" tooltips="1" connect="1" arrows="1" fold="1" page="1" pageScale="1" pageWidth="827" pageHeight="1169" math="0" shadow="0">
      <root>
        <mxCell id="0" />
        <mxCell id="1" parent="0" />
        <mxCell id="W6BF9zp62sRxNxLpaRcd-25" style="edgeStyle=orthogonalEdgeStyle;rounded=0;orthogonalLoop=1;jettySize=auto;html=1;" edge="1" parent="1" source="W6BF9zp62sRxNxLpaRcd-1" target="W6BF9zp62sRxNxLpaRcd-20">
          <mxGeometry relative="1" as="geometry" />
        </mxCell>
        <mxCell id="W6BF9zp62sRxNxLpaRcd-26" style="edgeStyle=orthogonalEdgeStyle;rounded=0;orthogonalLoop=1;jettySize=auto;html=1;" edge="1" parent="1" source="W6BF9zp62sRxNxLpaRcd-1" target="W6BF9zp62sRxNxLpaRcd-12">
          <mxGeometry relative="1" as="geometry" />
        </mxCell>
        <mxCell id="W6BF9zp62sRxNxLpaRcd-1" value="User (abstract)" style="swimlane;fontStyle=0;childLayout=stackLayout;horizontal=1;startSize=30;horizontalStack=0;resizeParent=1;resizeParentMax=0;resizeLast=0;collapsible=1;marginBottom=0;whiteSpace=wrap;html=1;" vertex="1" parent="1">
          <mxGeometry x="88" y="28" width="239" height="300" as="geometry">
            <mxRectangle x="115" y="86" width="64" height="30" as="alternateBounds" />
          </mxGeometry>
        </mxCell>
        <mxCell id="W6BF9zp62sRxNxLpaRcd-28" value="Attribures:" style="text;strokeColor=none;fillColor=none;align=left;verticalAlign=middle;spacingLeft=4;spacingRight=4;overflow=hidden;points=[[0,0.5],[1,0.5]];portConstraint=eastwest;rotatable=0;whiteSpace=wrap;html=1;" vertex="1" parent="W6BF9zp62sRxNxLpaRcd-1">
          <mxGeometry y="30" width="239" height="30" as="geometry" />
        </mxCell>
        <mxCell id="W6BF9zp62sRxNxLpaRcd-2" value="- string: email" style="text;strokeColor=none;fillColor=none;align=left;verticalAlign=middle;spacingLeft=4;spacingRight=4;overflow=hidden;points=[[0,0.5],[1,0.5]];portConstraint=eastwest;rotatable=0;whiteSpace=wrap;html=1;" vertex="1" parent="W6BF9zp62sRxNxLpaRcd-1">
          <mxGeometry y="60" width="239" height="30" as="geometry" />
        </mxCell>
        <mxCell id="W6BF9zp62sRxNxLpaRcd-3" value="- string: password" style="text;strokeColor=none;fillColor=none;align=left;verticalAlign=middle;spacingLeft=4;spacingRight=4;overflow=hidden;points=[[0,0.5],[1,0.5]];portConstraint=eastwest;rotatable=0;whiteSpace=wrap;html=1;" vertex="1" parent="W6BF9zp62sRxNxLpaRcd-1">
          <mxGeometry y="90" width="239" height="30" as="geometry" />
        </mxCell>
        <mxCell id="W6BF9zp62sRxNxLpaRcd-4" value="- string: name" style="text;strokeColor=none;fillColor=none;align=left;verticalAlign=middle;spacingLeft=4;spacingRight=4;overflow=hidden;points=[[0,0.5],[1,0.5]];portConstraint=eastwest;rotatable=0;whiteSpace=wrap;html=1;" vertex="1" parent="W6BF9zp62sRxNxLpaRcd-1">
          <mxGeometry y="120" width="239" height="30" as="geometry" />
        </mxCell>
        <mxCell id="W6BF9zp62sRxNxLpaRcd-6" value="- string: lastname" style="text;strokeColor=none;fillColor=none;align=left;verticalAlign=middle;spacingLeft=4;spacingRight=4;overflow=hidden;points=[[0,0.5],[1,0.5]];portConstraint=eastwest;rotatable=0;whiteSpace=wrap;html=1;" vertex="1" parent="W6BF9zp62sRxNxLpaRcd-1">
          <mxGeometry y="150" width="239" height="30" as="geometry" />
        </mxCell>
        <mxCell id="W6BF9zp62sRxNxLpaRcd-5" value="- strig: phone" style="text;strokeColor=none;fillColor=none;align=left;verticalAlign=middle;spacingLeft=4;spacingRight=4;overflow=hidden;points=[[0,0.5],[1,0.5]];portConstraint=eastwest;rotatable=0;whiteSpace=wrap;html=1;" vertex="1" parent="W6BF9zp62sRxNxLpaRcd-1">
          <mxGeometry y="180" width="239" height="30" as="geometry" />
        </mxCell>
        <mxCell id="W6BF9zp62sRxNxLpaRcd-14" value="- bool: false;" style="text;strokeColor=none;fillColor=none;align=left;verticalAlign=middle;spacingLeft=4;spacingRight=4;overflow=hidden;points=[[0,0.5],[1,0.5]];portConstraint=eastwest;rotatable=0;whiteSpace=wrap;html=1;" vertex="1" parent="W6BF9zp62sRxNxLpaRcd-1">
          <mxGeometry y="210" width="239" height="30" as="geometry" />
        </mxCell>
        <mxCell id="W6BF9zp62sRxNxLpaRcd-27" value="&lt;div&gt;Methods:&lt;/div&gt;" style="text;strokeColor=none;fillColor=none;align=left;verticalAlign=middle;spacingLeft=4;spacingRight=4;overflow=hidden;points=[[0,0.5],[1,0.5]];portConstraint=eastwest;rotatable=0;whiteSpace=wrap;html=1;" vertex="1" parent="W6BF9zp62sRxNxLpaRcd-1">
          <mxGeometry y="240" width="239" height="30" as="geometry" />
        </mxCell>
        <mxCell id="W6BF9zp62sRxNxLpaRcd-29" value="BookingDocument()" style="text;strokeColor=none;fillColor=none;align=left;verticalAlign=middle;spacingLeft=4;spacingRight=4;overflow=hidden;points=[[0,0.5],[1,0.5]];portConstraint=eastwest;rotatable=0;whiteSpace=wrap;html=1;" vertex="1" parent="W6BF9zp62sRxNxLpaRcd-1">
          <mxGeometry y="270" width="239" height="30" as="geometry" />
        </mxCell>
        <mxCell id="W6BF9zp62sRxNxLpaRcd-12" value="Admin" style="swimlane;fontStyle=0;childLayout=stackLayout;horizontal=1;startSize=30;horizontalStack=0;resizeParent=1;resizeParentMax=0;resizeLast=0;collapsible=1;marginBottom=0;whiteSpace=wrap;html=1;" vertex="1" parent="1">
          <mxGeometry x="257" y="428" width="140" height="150" as="geometry" />
        </mxCell>
        <mxCell id="W6BF9zp62sRxNxLpaRcd-13" value="Methods:" style="text;strokeColor=none;fillColor=none;align=left;verticalAlign=middle;spacingLeft=4;spacingRight=4;overflow=hidden;points=[[0,0.5],[1,0.5]];portConstraint=eastwest;rotatable=0;whiteSpace=wrap;html=1;" vertex="1" parent="W6BF9zp62sRxNxLpaRcd-12">
          <mxGeometry y="30" width="140" height="30" as="geometry" />
        </mxCell>
        <mxCell id="W6BF9zp62sRxNxLpaRcd-30" value="AddDocument()" style="text;strokeColor=none;fillColor=none;align=left;verticalAlign=middle;spacingLeft=4;spacingRight=4;overflow=hidden;points=[[0,0.5],[1,0.5]];portConstraint=eastwest;rotatable=0;whiteSpace=wrap;html=1;" vertex="1" parent="W6BF9zp62sRxNxLpaRcd-12">
          <mxGeometry y="60" width="140" height="30" as="geometry" />
        </mxCell>
        <mxCell id="W6BF9zp62sRxNxLpaRcd-60" value="RemoveDocument()" style="text;strokeColor=none;fillColor=none;align=left;verticalAlign=middle;spacingLeft=4;spacingRight=4;overflow=hidden;points=[[0,0.5],[1,0.5]];portConstraint=eastwest;rotatable=0;whiteSpace=wrap;html=1;" vertex="1" parent="W6BF9zp62sRxNxLpaRcd-12">
          <mxGeometry y="90" width="140" height="30" as="geometry" />
        </mxCell>
        <mxCell id="W6BF9zp62sRxNxLpaRcd-62" value="EditDocument()" style="text;strokeColor=none;fillColor=none;align=left;verticalAlign=middle;spacingLeft=4;spacingRight=4;overflow=hidden;points=[[0,0.5],[1,0.5]];portConstraint=eastwest;rotatable=0;whiteSpace=wrap;html=1;" vertex="1" parent="W6BF9zp62sRxNxLpaRcd-12">
          <mxGeometry y="120" width="140" height="30" as="geometry" />
        </mxCell>
        <mxCell id="W6BF9zp62sRxNxLpaRcd-20" value="Guest" style="swimlane;fontStyle=0;childLayout=stackLayout;horizontal=1;startSize=30;horizontalStack=0;resizeParent=1;resizeParentMax=0;resizeLast=0;collapsible=1;marginBottom=0;whiteSpace=wrap;html=1;" vertex="1" parent="1">
          <mxGeometry x="17" y="428" width="140" height="90" as="geometry" />
        </mxCell>
        <mxCell id="W6BF9zp62sRxNxLpaRcd-21" value="Methods:" style="text;strokeColor=none;fillColor=none;align=left;verticalAlign=middle;spacingLeft=4;spacingRight=4;overflow=hidden;points=[[0,0.5],[1,0.5]];portConstraint=eastwest;rotatable=0;whiteSpace=wrap;html=1;" vertex="1" parent="W6BF9zp62sRxNxLpaRcd-20">
          <mxGeometry y="30" width="140" height="30" as="geometry" />
        </mxCell>
        <mxCell id="W6BF9zp62sRxNxLpaRcd-61" value="SignUp()" style="text;strokeColor=none;fillColor=none;align=left;verticalAlign=middle;spacingLeft=4;spacingRight=4;overflow=hidden;points=[[0,0.5],[1,0.5]];portConstraint=eastwest;rotatable=0;whiteSpace=wrap;html=1;" vertex="1" parent="W6BF9zp62sRxNxLpaRcd-20">
          <mxGeometry y="60" width="140" height="30" as="geometry" />
        </mxCell>
        <mxCell id="W6BF9zp62sRxNxLpaRcd-49" style="edgeStyle=orthogonalEdgeStyle;rounded=0;orthogonalLoop=1;jettySize=auto;html=1;entryX=0.5;entryY=0;entryDx=0;entryDy=0;" edge="1" parent="1" source="W6BF9zp62sRxNxLpaRcd-32" target="W6BF9zp62sRxNxLpaRcd-41">
          <mxGeometry relative="1" as="geometry" />
        </mxCell>
        <mxCell id="W6BF9zp62sRxNxLpaRcd-50" style="edgeStyle=orthogonalEdgeStyle;rounded=0;orthogonalLoop=1;jettySize=auto;html=1;" edge="1" parent="1" source="W6BF9zp62sRxNxLpaRcd-32" target="W6BF9zp62sRxNxLpaRcd-45">
          <mxGeometry relative="1" as="geometry" />
        </mxCell>
        <mxCell id="W6BF9zp62sRxNxLpaRcd-32" value="Document (abstract)" style="swimlane;fontStyle=0;childLayout=stackLayout;horizontal=1;startSize=30;horizontalStack=0;resizeParent=1;resizeParentMax=0;resizeLast=0;collapsible=1;marginBottom=0;whiteSpace=wrap;html=1;" vertex="1" parent="1">
          <mxGeometry x="493" y="267" width="214" height="339" as="geometry" />
        </mxCell>
        <mxCell id="W6BF9zp62sRxNxLpaRcd-33" value="Attributes:" style="text;strokeColor=none;fillColor=none;align=left;verticalAlign=middle;spacingLeft=4;spacingRight=4;overflow=hidden;points=[[0,0.5],[1,0.5]];portConstraint=eastwest;rotatable=0;whiteSpace=wrap;html=1;" vertex="1" parent="W6BF9zp62sRxNxLpaRcd-32">
          <mxGeometry y="30" width="214" height="30" as="geometry" />
        </mxCell>
        <mxCell id="W6BF9zp62sRxNxLpaRcd-34" value="- string: Title" style="text;strokeColor=none;fillColor=none;align=left;verticalAlign=middle;spacingLeft=4;spacingRight=4;overflow=hidden;points=[[0,0.5],[1,0.5]];portConstraint=eastwest;rotatable=0;whiteSpace=wrap;html=1;" vertex="1" parent="W6BF9zp62sRxNxLpaRcd-32">
          <mxGeometry y="60" width="214" height="30" as="geometry" />
        </mxCell>
        <mxCell id="W6BF9zp62sRxNxLpaRcd-36" value="&lt;div&gt;- string: Year&lt;/div&gt;" style="text;strokeColor=none;fillColor=none;align=left;verticalAlign=middle;spacingLeft=4;spacingRight=4;overflow=hidden;points=[[0,0.5],[1,0.5]];portConstraint=eastwest;rotatable=0;whiteSpace=wrap;html=1;" vertex="1" parent="W6BF9zp62sRxNxLpaRcd-32">
          <mxGeometry y="90" width="214" height="30" as="geometry" />
        </mxCell>
        <mxCell id="W6BF9zp62sRxNxLpaRcd-37" value="- string: Genre" style="text;strokeColor=none;fillColor=none;align=left;verticalAlign=middle;spacingLeft=4;spacingRight=4;overflow=hidden;points=[[0,0.5],[1,0.5]];portConstraint=eastwest;rotatable=0;whiteSpace=wrap;html=1;" vertex="1" parent="W6BF9zp62sRxNxLpaRcd-32">
          <mxGeometry y="120" width="214" height="30" as="geometry" />
        </mxCell>
        <mxCell id="W6BF9zp62sRxNxLpaRcd-38" value="- bool: Status" style="text;strokeColor=none;fillColor=none;align=left;verticalAlign=middle;spacingLeft=4;spacingRight=4;overflow=hidden;points=[[0,0.5],[1,0.5]];portConstraint=eastwest;rotatable=0;whiteSpace=wrap;html=1;" vertex="1" parent="W6BF9zp62sRxNxLpaRcd-32">
          <mxGeometry y="150" width="214" height="30" as="geometry" />
        </mxCell>
        <mxCell id="W6BF9zp62sRxNxLpaRcd-39" value="- stirng: Location" style="text;strokeColor=none;fillColor=none;align=left;verticalAlign=middle;spacingLeft=4;spacingRight=4;overflow=hidden;points=[[0,0.5],[1,0.5]];portConstraint=eastwest;rotatable=0;whiteSpace=wrap;html=1;" vertex="1" parent="W6BF9zp62sRxNxLpaRcd-32">
          <mxGeometry y="180" width="214" height="30" as="geometry" />
        </mxCell>
        <mxCell id="W6BF9zp62sRxNxLpaRcd-40" value="- list&amp;lt;string&amp;gt;: Authors" style="text;strokeColor=none;fillColor=none;align=left;verticalAlign=middle;spacingLeft=4;spacingRight=4;overflow=hidden;points=[[0,0.5],[1,0.5]];portConstraint=eastwest;rotatable=0;whiteSpace=wrap;html=1;" vertex="1" parent="W6BF9zp62sRxNxLpaRcd-32">
          <mxGeometry y="210" width="214" height="43" as="geometry" />
        </mxCell>
        <mxCell id="W6BF9zp62sRxNxLpaRcd-51" value="Methods:" style="text;strokeColor=none;fillColor=none;align=left;verticalAlign=middle;spacingLeft=4;spacingRight=4;overflow=hidden;points=[[0,0.5],[1,0.5]];portConstraint=eastwest;rotatable=0;whiteSpace=wrap;html=1;" vertex="1" parent="W6BF9zp62sRxNxLpaRcd-32">
          <mxGeometry y="253" width="214" height="43" as="geometry" />
        </mxCell>
        <mxCell id="W6BF9zp62sRxNxLpaRcd-53" style="text;strokeColor=none;fillColor=none;align=left;verticalAlign=middle;spacingLeft=4;spacingRight=4;overflow=hidden;points=[[0,0.5],[1,0.5]];portConstraint=eastwest;rotatable=0;whiteSpace=wrap;html=1;" vertex="1" parent="W6BF9zp62sRxNxLpaRcd-32">
          <mxGeometry y="296" width="214" height="43" as="geometry" />
        </mxCell>
        <mxCell id="W6BF9zp62sRxNxLpaRcd-41" value="Book" style="swimlane;fontStyle=0;childLayout=stackLayout;horizontal=1;startSize=30;horizontalStack=0;resizeParent=1;resizeParentMax=0;resizeLast=0;collapsible=1;marginBottom=0;whiteSpace=wrap;html=1;" vertex="1" parent="1">
          <mxGeometry x="414" y="728" width="140" height="150" as="geometry" />
        </mxCell>
        <mxCell id="W6BF9zp62sRxNxLpaRcd-42" value="- string: ISBN" style="text;strokeColor=none;fillColor=none;align=left;verticalAlign=middle;spacingLeft=4;spacingRight=4;overflow=hidden;points=[[0,0.5],[1,0.5]];portConstraint=eastwest;rotatable=0;whiteSpace=wrap;html=1;" vertex="1" parent="W6BF9zp62sRxNxLpaRcd-41">
          <mxGeometry y="30" width="140" height="30" as="geometry" />
        </mxCell>
        <mxCell id="W6BF9zp62sRxNxLpaRcd-43" value="- string: Pages" style="text;strokeColor=none;fillColor=none;align=left;verticalAlign=middle;spacingLeft=4;spacingRight=4;overflow=hidden;points=[[0,0.5],[1,0.5]];portConstraint=eastwest;rotatable=0;whiteSpace=wrap;html=1;" vertex="1" parent="W6BF9zp62sRxNxLpaRcd-41">
          <mxGeometry y="60" width="140" height="30" as="geometry" />
        </mxCell>
        <mxCell id="W6BF9zp62sRxNxLpaRcd-44" value="Methods:" style="text;strokeColor=none;fillColor=none;align=left;verticalAlign=middle;spacingLeft=4;spacingRight=4;overflow=hidden;points=[[0,0.5],[1,0.5]];portConstraint=eastwest;rotatable=0;whiteSpace=wrap;html=1;" vertex="1" parent="W6BF9zp62sRxNxLpaRcd-41">
          <mxGeometry y="90" width="140" height="30" as="geometry" />
        </mxCell>
        <mxCell id="W6BF9zp62sRxNxLpaRcd-52" style="text;strokeColor=none;fillColor=none;align=left;verticalAlign=middle;spacingLeft=4;spacingRight=4;overflow=hidden;points=[[0,0.5],[1,0.5]];portConstraint=eastwest;rotatable=0;whiteSpace=wrap;html=1;" vertex="1" parent="W6BF9zp62sRxNxLpaRcd-41">
          <mxGeometry y="120" width="140" height="30" as="geometry" />
        </mxCell>
        <mxCell id="W6BF9zp62sRxNxLpaRcd-45" value="DVD" style="swimlane;fontStyle=0;childLayout=stackLayout;horizontal=1;startSize=30;horizontalStack=0;resizeParent=1;resizeParentMax=0;resizeLast=0;collapsible=1;marginBottom=0;whiteSpace=wrap;html=1;" vertex="1" parent="1">
          <mxGeometry x="617" y="728" width="195" height="150" as="geometry" />
        </mxCell>
        <mxCell id="W6BF9zp62sRxNxLpaRcd-46" value="- string: Serial Number" style="text;strokeColor=none;fillColor=none;align=left;verticalAlign=middle;spacingLeft=4;spacingRight=4;overflow=hidden;points=[[0,0.5],[1,0.5]];portConstraint=eastwest;rotatable=0;whiteSpace=wrap;html=1;" vertex="1" parent="W6BF9zp62sRxNxLpaRcd-45">
          <mxGeometry y="30" width="195" height="30" as="geometry" />
        </mxCell>
        <mxCell id="W6BF9zp62sRxNxLpaRcd-47" value="- string: Duration" style="text;strokeColor=none;fillColor=none;align=left;verticalAlign=middle;spacingLeft=4;spacingRight=4;overflow=hidden;points=[[0,0.5],[1,0.5]];portConstraint=eastwest;rotatable=0;whiteSpace=wrap;html=1;" vertex="1" parent="W6BF9zp62sRxNxLpaRcd-45">
          <mxGeometry y="60" width="195" height="30" as="geometry" />
        </mxCell>
        <mxCell id="W6BF9zp62sRxNxLpaRcd-48" value="Methods:" style="text;strokeColor=none;fillColor=none;align=left;verticalAlign=middle;spacingLeft=4;spacingRight=4;overflow=hidden;points=[[0,0.5],[1,0.5]];portConstraint=eastwest;rotatable=0;whiteSpace=wrap;html=1;" vertex="1" parent="W6BF9zp62sRxNxLpaRcd-45">
          <mxGeometry y="90" width="195" height="30" as="geometry" />
        </mxCell>
        <mxCell id="W6BF9zp62sRxNxLpaRcd-54" style="text;strokeColor=none;fillColor=none;align=left;verticalAlign=middle;spacingLeft=4;spacingRight=4;overflow=hidden;points=[[0,0.5],[1,0.5]];portConstraint=eastwest;rotatable=0;whiteSpace=wrap;html=1;" vertex="1" parent="W6BF9zp62sRxNxLpaRcd-45">
          <mxGeometry y="120" width="195" height="30" as="geometry" />
        </mxCell>
        <mxCell id="W6BF9zp62sRxNxLpaRcd-55" value="Loan" style="swimlane;fontStyle=0;childLayout=stackLayout;horizontal=1;startSize=30;horizontalStack=0;resizeParent=1;resizeParentMax=0;resizeLast=0;collapsible=1;marginBottom=0;whiteSpace=wrap;html=1;" vertex="1" parent="1">
          <mxGeometry x="465" y="32" width="247" height="180" as="geometry" />
        </mxCell>
        <mxCell id="W6BF9zp62sRxNxLpaRcd-56" value="Attributes:" style="text;strokeColor=none;fillColor=none;align=left;verticalAlign=middle;spacingLeft=4;spacingRight=4;overflow=hidden;points=[[0,0.5],[1,0.5]];portConstraint=eastwest;rotatable=0;whiteSpace=wrap;html=1;" vertex="1" parent="W6BF9zp62sRxNxLpaRcd-55">
          <mxGeometry y="30" width="247" height="30" as="geometry" />
        </mxCell>
        <mxCell id="W6BF9zp62sRxNxLpaRcd-63" value="- List&amp;lt;Document, Time&amp;gt;: " style="text;strokeColor=none;fillColor=none;align=left;verticalAlign=middle;spacingLeft=4;spacingRight=4;overflow=hidden;points=[[0,0.5],[1,0.5]];portConstraint=eastwest;rotatable=0;whiteSpace=wrap;html=1;" vertex="1" parent="W6BF9zp62sRxNxLpaRcd-55">
          <mxGeometry y="60" width="247" height="30" as="geometry" />
        </mxCell>
        <mxCell id="W6BF9zp62sRxNxLpaRcd-57" value="- string: Id" style="text;strokeColor=none;fillColor=none;align=left;verticalAlign=middle;spacingLeft=4;spacingRight=4;overflow=hidden;points=[[0,0.5],[1,0.5]];portConstraint=eastwest;rotatable=0;whiteSpace=wrap;html=1;" vertex="1" parent="W6BF9zp62sRxNxLpaRcd-55">
          <mxGeometry y="90" width="247" height="30" as="geometry" />
        </mxCell>
        <mxCell id="W6BF9zp62sRxNxLpaRcd-58" value="Methods:" style="text;strokeColor=none;fillColor=none;align=left;verticalAlign=middle;spacingLeft=4;spacingRight=4;overflow=hidden;points=[[0,0.5],[1,0.5]];portConstraint=eastwest;rotatable=0;whiteSpace=wrap;html=1;" vertex="1" parent="W6BF9zp62sRxNxLpaRcd-55">
          <mxGeometry y="120" width="247" height="30" as="geometry" />
        </mxCell>
        <mxCell id="W6BF9zp62sRxNxLpaRcd-59" style="text;strokeColor=none;fillColor=none;align=left;verticalAlign=middle;spacingLeft=4;spacingRight=4;overflow=hidden;points=[[0,0.5],[1,0.5]];portConstraint=eastwest;rotatable=0;whiteSpace=wrap;html=1;" vertex="1" parent="W6BF9zp62sRxNxLpaRcd-55">
          <mxGeometry y="150" width="247" height="30" as="geometry" />
        </mxCell>
      </root>
    </mxGraphModel>
  </diagram>
</mxfile>
